<svg width="23" height="23" viewBox="0 0 23 23" fill="none" xmlns="http://www.w3.org/2000/svg">
<g id="material-symbols:format-list-bulleted">
<path id="Vector" d="M6.06348 17.125C5.75098 17.125 5.48548 17.0155 5.26698 16.7965C5.04798 16.578 4.93848 16.3125 4.93848 16C4.93848 15.6875 5.04798 15.422 5.26698 15.2035C5.48548 14.9845 5.75098 14.875 6.06348 14.875C6.37598 14.875 6.64148 14.9845 6.85998 15.2035C7.07898 15.422 7.18848 15.6875 7.18848 16C7.18848 16.3125 7.07898 16.578 6.85998 16.7965C6.64148 17.0155 6.37598 17.125 6.06348 17.125ZM8.68848 16.75V15.25H18.4385V16.75H8.68848ZM6.06348 12.625C5.75098 12.625 5.48548 12.5155 5.26698 12.2965C5.04798 12.078 4.93848 11.8125 4.93848 11.5C4.93848 11.1875 5.04798 10.922 5.26698 10.7035C5.48548 10.4845 5.75098 10.375 6.06348 10.375C6.37598 10.375 6.64148 10.4845 6.85998 10.7035C7.07898 10.922 7.18848 11.1875 7.18848 11.5C7.18848 11.8125 7.07898 12.078 6.85998 12.2965C6.64148 12.5155 6.37598 12.625 6.06348 12.625ZM8.68848 12.25V10.75H18.4385V12.25H8.68848ZM6.06348 8.125C5.75098 8.125 5.48548 8.0155 5.26698 7.7965C5.04798 7.578 4.93848 7.3125 4.93848 7C4.93848 6.6875 5.04798 6.422 5.26698 6.2035C5.48548 5.9845 5.75098 5.875 6.06348 5.875C6.37598 5.875 6.64148 5.9845 6.85998 6.2035C7.07898 6.422 7.18848 6.6875 7.18848 7C7.18848 7.3125 7.07898 7.578 6.85998 7.7965C6.64148 8.0155 6.37598 8.125 6.06348 8.125ZM8.68848 7.75V6.25H18.4385V7.75H8.68848Z" fill="black" fill-opacity="0.75"/>
<rect x="1.68848" y="1.5" width="20" height="20" rx="4" stroke="black" stroke-opacity="0.75" stroke-width="2"/>
</g>
</svg>
